# xmcd
#
# Track frame offsets: 
#        150
#        19356
#        44753
#        68267
#        98303
#        118580
#        137328
#        154802
#        173753
#        187501
#
# Disc length: 2776 seconds
#
# Revision: 1
# Processed by: cddbd v1.5.2PL0 Copyright (c) Steve Scherf et al.
# Submitted via: ExactAudioCopyFreeDBPlugin 1.0
#
DISCID=6f0ad60a
DTITLE=Various Artist - Where Blues Crosses Over 2010
DYEAR=2010
DGENRE=Blues
TTITLE0=Big Daddy Wilson - Love Is The Key
TTITLE1=Jeff Healey - I Think I Love You Too Much
TTITLE2=Meena - Nothing Left
TTITLE3=Luther Allision - Living In The House Of The Blues
TTITLE4=Oli Brown - Stone Cold (Roxanne)
TTITLE5=Joanne Shaw Taylor - Just Another Word
TTITLE6=Shakura S'aida - Chashing The Sun
TTITLE7=Omar Dykes feat. Jimmy Vaughan - Big Town Playboys
TTITLE8=Erja Lyytinen - Crows At Your Door
TTITLE9=Coco Montoya - I Want It All Back
EXTD=
EXTT0=
EXTT1=
EXTT2=
EXTT3=
EXTT4=
EXTT5=
EXTT6=
EXTT7=
EXTT8=
EXTT9=
PLAYORDER=
